<svg width="1024" height="1024" viewBox="0 0 1024 1024" fill="none" xmlns="http://www.w3.org/2000/svg">
<g clip-path="url(#clip0_1_2)">
<rect width="1024" height="1024" rx="220" fill="#FDF6E8"/>
<path d="M492.713 464.86C466.073 464.86 442.673 456.58 422.513 440.02C402.713 423.46 387.233 400.24 376.073 370.36C365.273 340.12 359.873 304.48 359.873 263.44C359.873 223.84 365.813 189.28 377.693 159.76C389.933 129.88 406.133 106.84 426.293 90.64C446.813 74.08 469.493 65.8 494.333 65.8C509.093 65.8 522.053 67.24 533.213 70.12C544.373 72.64 554.273 76.06 562.913 80.38C567.233 82.9 569.393 86.68 569.393 91.72L571.013 173.8C571.013 179.92 568.853 182.98 564.533 182.98C560.573 182.98 558.053 180.64 556.973 175.96L551.573 155.98C544.013 127.9 535.193 108.46 525.113 97.66C515.393 86.86 503.693 81.46 490.013 81.46C464.813 81.46 443.753 97.12 426.833 128.44C410.273 159.4 401.993 204.4 401.993 263.44C401.993 303.76 406.133 337.78 414.413 365.5C423.053 393.22 434.033 414.1 447.353 428.14C461.033 442.18 475.433 449.2 490.553 449.2C506.753 449.2 519.713 444.16 529.433 434.08C539.513 424 547.973 404.56 554.813 375.76L561.293 349.3C562.373 343.9 565.253 341.56 569.933 342.28C573.893 343 575.873 346.06 575.873 351.46L573.713 438.94C573.713 443.98 571.373 447.76 566.693 450.28C558.053 454.6 547.793 458.02 535.913 460.54C524.393 463.42 509.993 464.86 492.713 464.86ZM484.073 31.78C479.033 31.78 474.533 29.8 470.573 25.84L407.933 -40.04C404.333 -44 403.793 -47.42 406.313 -50.3C409.193 -53.9 412.793 -54.26 417.113 -51.38L488.933 -2.24004L561.293 -50.84C566.333 -54.08 569.933 -53.9 572.093 -50.3C574.613 -47.42 574.073 -44 570.473 -40.04L507.833 25.84C503.873 29.8 499.373 31.78 494.333 31.78H484.073Z" fill="#1C1C1C"/>
<path d="M329.344 884.56C326.88 884.56 324.715 884.093 322.848 883.16C321.019 882.227 319.6 880.883 318.592 879.128C317.584 877.336 317.08 875.227 317.08 872.8V864.4C317.08 861.936 317.584 859.827 318.592 858.072C319.6 856.317 321.019 854.973 322.848 854.04C324.715 853.107 326.88 852.64 329.344 852.64C332.891 852.64 335.747 853.592 337.912 855.496C340.078 857.4 341.216 859.995 341.328 863.28H336.288C336.176 861.301 335.504 859.789 334.272 858.744C333.078 857.661 331.435 857.12 329.344 857.12C327.142 857.12 325.387 857.755 324.08 859.024C322.774 860.256 322.12 862.029 322.12 864.344V872.8C322.12 875.115 322.774 876.907 324.08 878.176C325.387 879.445 327.142 880.08 329.344 880.08C331.435 880.08 333.078 879.539 334.272 878.456C335.504 877.373 336.176 875.861 336.288 873.92H341.328C341.216 877.205 340.078 879.8 337.912 881.704C335.747 883.608 332.891 884.56 329.344 884.56ZM362.282 884L351.978 853.2H357.13L363.962 873.92C364.373 875.152 364.746 876.347 365.082 877.504C365.418 878.624 365.661 879.501 365.81 880.136C365.997 879.501 366.258 878.624 366.594 877.504C366.93 876.347 367.285 875.152 367.658 873.92L374.322 853.2H379.418L369.114 884H362.282ZM391.693 884V853.2H396.621V859.08H397.797L396.173 862.72C396.173 859.397 396.882 856.896 398.301 855.216C399.757 853.499 401.903 852.64 404.741 852.64C407.989 852.64 410.565 853.667 412.469 855.72C414.41 857.736 415.381 860.48 415.381 863.952V865.8H410.341V864.4C410.341 861.973 409.743 860.125 408.549 858.856C407.391 857.549 405.73 856.896 403.565 856.896C401.437 856.896 399.757 857.549 398.525 858.856C397.33 860.163 396.733 862.011 396.733 864.4V884H391.693ZM439.079 884.56C436.615 884.56 434.449 884.093 432.583 883.16C430.753 882.227 429.335 880.883 428.327 879.128C427.319 877.336 426.815 875.227 426.815 872.8V864.4C426.815 861.936 427.319 859.827 428.327 858.072C429.335 856.317 430.753 854.973 432.583 854.04C434.449 853.107 436.615 852.64 439.079 852.64C442.625 852.64 445.481 853.592 447.647 855.496C449.812 857.4 450.951 859.995 451.063 863.28H446.023C445.911 861.301 445.239 859.789 444.007 858.744C442.812 857.661 441.169 857.12 439.079 857.12C436.876 857.12 435.121 857.755 433.815 859.024C432.508 860.256 431.855 862.029 431.855 864.344V872.8C431.855 875.115 432.508 876.907 433.815 878.176C435.121 879.445 436.876 880.08 439.079 880.08C441.169 880.08 442.812 879.539 444.007 878.456C445.239 877.373 445.911 875.861 446.023 873.92H451.063C450.951 877.205 449.812 879.8 447.647 881.704C445.481 883.608 442.625 884.56 439.079 884.56ZM472.745 884.56C469.497 884.56 466.939 883.739 465.073 882.096C463.206 880.416 462.273 878.157 462.273 875.32C462.273 872.445 463.206 870.187 465.073 868.544C466.939 866.901 469.459 866.08 472.633 866.08H482.153V863C482.153 861.096 481.574 859.64 480.417 858.632C479.297 857.587 477.691 857.064 475.601 857.064C473.771 857.064 472.241 857.456 471.009 858.24C469.777 858.987 469.067 860.013 468.881 861.32H463.841C464.177 858.669 465.427 856.56 467.593 854.992C469.758 853.424 472.465 852.64 475.713 852.64C479.259 852.64 482.059 853.555 484.113 855.384C486.166 857.213 487.193 859.696 487.193 862.832V884H482.265V878.12H481.425L482.265 877.28C482.265 879.52 481.387 881.293 479.633 882.6C477.915 883.907 475.619 884.56 472.745 884.56ZM473.977 880.584C476.366 880.584 478.326 879.987 479.857 878.792C481.387 877.597 482.153 876.067 482.153 874.2V869.832H472.745C471.065 869.832 469.739 870.299 468.769 871.232C467.798 872.165 467.313 873.435 467.313 875.04C467.313 876.757 467.891 878.12 469.049 879.128C470.243 880.099 471.886 880.584 473.977 880.584ZM500.531 884V843.12H505.571V865.912H511.507L520.467 853.2H526.235L515.875 867.872L526.403 884H520.523L511.563 870.28H505.571V884H500.531ZM548.589 884.56C547.17 884.56 546.032 884.149 545.173 883.328C544.352 882.507 543.941 881.405 543.941 880.024C543.941 878.568 544.352 877.411 545.173 876.552C546.032 875.693 547.17 875.264 548.589 875.264C550.008 875.264 551.128 875.693 551.949 876.552C552.808 877.411 553.237 878.568 553.237 880.024C553.237 881.405 552.808 882.507 551.949 883.328C551.128 884.149 550.008 884.56 548.589 884.56ZM588.527 884C585.877 884 583.805 883.291 582.311 881.872C580.855 880.453 580.127 878.456 580.127 875.88V857.792H571.447V853.2H580.127V844.52H585.167V853.2H597.487V857.792H585.167V875.88C585.167 878.232 586.287 879.408 588.527 879.408H596.927V884H588.527ZM621.745 884.56C619.319 884.56 617.191 884.075 615.361 883.104C613.569 882.133 612.169 880.771 611.161 879.016C610.191 877.224 609.705 875.152 609.705 872.8V864.4C609.705 862.011 610.191 859.939 611.161 858.184C612.169 856.429 613.569 855.067 615.361 854.096C617.191 853.125 619.319 852.64 621.745 852.64C624.172 852.64 626.281 853.125 628.073 854.096C629.903 855.067 631.303 856.429 632.273 858.184C633.281 859.939 633.785 862.011 633.785 864.4V869.832H614.633V872.8C614.633 875.227 615.249 877.093 616.481 878.4C617.713 879.669 619.468 880.304 621.745 880.304C623.687 880.304 625.255 879.968 626.449 879.296C627.644 878.587 628.372 877.541 628.633 876.16H633.673C633.337 878.736 632.068 880.789 629.865 882.32C627.7 883.813 624.993 884.56 621.745 884.56ZM628.857 866.472V864.4C628.857 861.973 628.241 860.107 627.009 858.8C625.815 857.493 624.06 856.84 621.745 856.84C619.468 856.84 617.713 857.493 616.481 858.8C615.249 860.107 614.633 861.973 614.633 864.4V866.024H629.249L628.857 866.472ZM658.547 884.56C656.083 884.56 653.918 884.093 652.051 883.16C650.222 882.227 648.803 880.883 647.795 879.128C646.787 877.336 646.283 875.227 646.283 872.8V864.4C646.283 861.936 646.787 859.827 647.795 858.072C648.803 856.317 650.222 854.973 652.051 854.04C653.918 853.107 656.083 852.64 658.547 852.64C662.094 852.64 664.95 853.592 667.115 855.496C669.281 857.4 670.419 859.995 670.531 863.28H665.491C665.379 861.301 664.707 859.789 663.475 858.744C662.281 857.661 660.638 857.12 658.547 857.12C656.345 857.12 654.59 857.755 653.283 859.024C651.977 860.256 651.323 862.029 651.323 864.344V872.8C651.323 875.115 651.977 876.907 653.283 878.176C654.59 879.445 656.345 880.08 658.547 880.08C660.638 880.08 662.281 879.539 663.475 878.456C664.707 877.373 665.379 875.861 665.491 873.92H670.531C670.419 877.205 669.281 879.8 667.115 881.704C664.95 883.608 662.094 884.56 658.547 884.56ZM683.254 884V843.12H688.294V853.2V859.08H689.358L688.294 860.256C688.294 857.829 689.022 855.963 690.478 854.656C691.934 853.312 693.95 852.64 696.526 852.64C699.624 852.64 702.088 853.592 703.918 855.496C705.747 857.4 706.662 859.995 706.662 863.28V884H701.622V863.84C701.622 861.637 701.024 859.939 699.83 858.744C698.672 857.512 697.086 856.896 695.07 856.896C692.979 856.896 691.318 857.549 690.086 858.856C688.891 860.163 688.294 862.011 688.294 864.4V884H683.254Z" fill="#2A9D8F"/>
</g>
<defs>
<clipPath id="clip0_1_2">
<rect width="1024" height="1024" rx="220" fill="white"/>
</clipPath>
</defs>
</svg>
